<?xml version="1.0" standalone="no"?><!DOCTYPE svg PUBLIC "-//W3C//DTD SVG 1.1//EN" "http://www.w3.org/Graphics/SVG/1.1/DTD/svg11.dtd"><svg class="icon" width="64px" height="64.00px" viewBox="0 0 1024 1024" version="1.1" xmlns="http://www.w3.org/2000/svg"><path fill="#ffffff" d="M512 0c-282.76736 0-512 71.63904-512 160.01024l0 128c0 88.3712 229.23264 160.01024 512 160.01024s512-71.63904 512-160.01024l0-128c0-88.3712-229.23264-160.01024-512-160.01024zM512 544.01024c-282.76736 0-512-71.63904-512-160.01024l0 192c0 88.3712 229.23264 160.01024 512 160.01024s512-71.63904 512-160.01024l0-192c0 88.3712-229.23264 160.01024-512 160.01024zM512 832c-282.76736 0-512-71.63904-512-160.01024l0 192c0 88.3712 229.23264 160.01024 512 160.01024s512-71.63904 512-160.01024l0-192c0 88.3712-229.23264 160.01024-512 160.01024z" /></svg>