<?xml version="1.0" standalone="no"?><!DOCTYPE svg PUBLIC "-//W3C//DTD SVG 1.1//EN" "http://www.w3.org/Graphics/SVG/1.1/DTD/svg11.dtd"><svg class="icon" width="64px" height="64.00px" viewBox="0 0 1024 1024" version="1.1" xmlns="http://www.w3.org/2000/svg"><path fill="#ffffff" d="M837.008696 338.365217 583.234783 84.591304c-24.486957-24.486957-66.782609-24.486957-91.269565 0L235.965217 338.365217c-17.808696 17.808696-24.486957 46.747826-13.356522 71.234783 11.130435 24.486957 33.391304 40.069565 60.104348 40.069565l91.269565 0L373.982609 645.565217l46.747826 0L420.730435 402.921739l-135.791304 0c-11.130435 0-15.582609-8.904348-17.808696-11.130435-2.226087-2.226087-4.452174-13.356522 4.452174-20.034783L523.130435 115.756522C527.582609 113.530435 532.034783 111.304348 536.486957 111.304348s8.904348 2.226087 13.356522 4.452174l256 256c8.904348 8.904348 4.452174 17.808696 4.452174 20.034783-2.226087 2.226087-6.678261 11.130435-17.808696 11.130435l-135.791304 0 0 289.391304c0 2.226087-2.226087 2.226087-2.226087 2.226087L373.982609 694.53913l0 46.747826 278.26087 0c26.713043 0 48.973913-22.26087 48.973913-48.973913L701.217391 449.669565l91.269565 0c26.713043 0 48.973913-15.582609 60.104348-40.069565C861.495652 385.113043 857.043478 358.4 837.008696 338.365217L837.008696 338.365217zM837.008696 338.365217M714.573913 839.234783c0 15.582609-11.130435 26.713043-26.713043 26.713043L394.017391 865.947826c-15.582609 0-26.713043-11.130435-26.713043-26.713043l0 0c0-15.582609 11.130435-26.713043 26.713043-26.713043l293.843478 0C703.443478 812.521739 714.573913 823.652174 714.573913 839.234783L714.573913 839.234783 714.573913 839.234783zM714.573913 839.234783M670.052174 946.086957c0 11.130435-8.904348 22.26087-20.034783 22.26087l-220.382609 0c-11.130435 0-20.034783-8.904348-20.034783-22.26087l0 0c0-11.130435 8.904348-22.26087 20.034783-22.26087l220.382609 0C661.147826 923.826087 670.052174 934.956522 670.052174 946.086957L670.052174 946.086957 670.052174 946.086957zM670.052174 946.086957" /></svg>